<?xml version="1.0" encoding="UTF-8"?>
<!DOCTYPE svg PUBLIC "-//W3C//DTD SVG 1.1//EN" "http://www.w3.org/Graphics/SVG/1.1/DTD/svg11.dtd">
<svg xmlns="http://www.w3.org/2000/svg" version="1.1" width="34px" height="33px" style="shape-rendering:geometricPrecision; text-rendering:geometricPrecision; image-rendering:optimizeQuality; fill-rule:evenodd; clip-rule:evenodd" xmlns:xlink="http://www.w3.org/1999/xlink">
<g><path style="opacity:0.93" fill="#f5f8ff" d="M 1.5,-0.5 C 4.83333,-0.5 8.16667,-0.5 11.5,-0.5C 6.5,2.5 2.5,6.5 -0.5,11.5C -0.5,8.16667 -0.5,4.83333 -0.5,1.5C 0.5,1.16667 1.16667,0.5 1.5,-0.5 Z"/></g>
<g><path style="opacity:0.961" fill="#2370f5" d="M 11.5,-0.5 C 15.1667,-0.5 18.8333,-0.5 22.5,-0.5C 27.1667,2.16667 30.8333,5.83333 33.5,10.5C 33.5,14.5 33.5,18.5 33.5,22.5C 31.2119,26.4558 28.2119,29.7891 24.5,32.5C 19.5,32.5 14.5,32.5 9.5,32.5C 6.52555,29.8621 3.52555,27.1954 0.5,24.5C 0.67158,23.5084 0.338246,22.8417 -0.5,22.5C -0.5,18.8333 -0.5,15.1667 -0.5,11.5C 2.5,6.5 6.5,2.5 11.5,-0.5 Z"/></g>
<g><path style="opacity:1" fill="#010207" d="M 11.5,3.5 C 23.7352,2.2443 29.5685,7.57763 29,19.5C 26.0529,27.7215 20.2196,30.8882 11.5,29C 4.93299,24.9794 2.43299,19.146 4,11.5C 6.02821,8.30777 8.52821,5.64111 11.5,3.5 Z"/></g>
<g><path style="opacity:1" fill="#279fe0" d="M 10.5,7.5 C 20.6041,6.10431 24.7708,10.4376 23,20.5C 22.2155,22.286 21.0488,23.786 19.5,25C 16.5184,25.498 13.5184,25.6646 10.5,25.5C 10.5,19.5 10.5,13.5 10.5,7.5 Z"/></g>
<g><path style="opacity:1" fill="#010305" d="M 14.5,10.5 C 18.3047,10.6425 19.9714,12.6425 19.5,16.5C 19.9714,20.3575 18.3047,22.3575 14.5,22.5C 14.5,18.5 14.5,14.5 14.5,10.5 Z"/></g>
<g><path style="opacity:0.864" fill="#f4f7ff" d="M -0.5,24.5 C -0.166667,24.5 0.166667,24.5 0.5,24.5C 3.52555,27.1954 6.52555,29.8621 9.5,32.5C 6.83333,32.5 4.16667,32.5 1.5,32.5C 1.16667,31.5 0.5,30.8333 -0.5,30.5C -0.5,28.5 -0.5,26.5 -0.5,24.5 Z"/></g>
</svg>
